PathFileType	4	(X/Y/Z)	 3.0Hz3min.trc
DataRate	CameraRate	NumFrames	NumMarkers	Units	OrigDataRate	OrigDataStartFrame	OrigNumFrames
200	200	7	43	m	200	1	1000
Frame#	Time	C7			LSH			RSH			MAN			RASI			LASI			HIPR			HIPL			RPSI			LPSI			COX			RTHI1			RTHI2			RTHI3			RTHI4			RLKN			RMKN			RSHA1			RSHA2			RSHA3			RSHA4			RLMAL			RMMAL			RHEEL			RMET5			RMET1			RTOE			LTHI1			LTHI2			LTHI3			LTHI4			LLKN			LMKN			LSHA1			LSHA2			LSHA3			LSHA4			LLMAL			LMMAL			LHEEL			LMET5			LMET1			LTOE			
		X1	Y1	Z1	X2	Y2	Z2	X3	Y3	Z3	X4	Y4	Z4	X5	Y5	Z5	X6	Y6	Z6	X7	Y7	Z7	X8	Y8	Z8	X9	Y9	Z9	X10	Y10	Z10	X11	Y11	Z11	X12	Y12	Z12	X13	Y13	Z13	X14	Y14	Z14	X15	Y15	Z15	X16	Y16	Z16	X17	Y17	Z17	X18	Y18	Z18	X19	Y19	Z19	X20	Y20	Z20	X21	Y21	Z21	X22	Y22	Z22	X23	Y23	Z23	X24	Y24	Z24	X25	Y25	Z25	X26	Y26	Z26	X27	Y27	Z27	X28	Y28	Z28	X29	Y29	Z29	X30	Y30	Z30	X31	Y31	Z31	X32	Y32	Z32	X33	Y33	Z33	X34	Y34	Z34	X35	Y35	Z35	X36	Y36	Z36	X37	Y37	Z37	X38	Y38	Z38	X39	Y39	Z39	X40	Y40	Z40	X41	Y41	Z41	X42	Y42	Z42	X43	Y43	Z43	
1	0.0050	-0.262001	1.523802	-0.559994	-0.199650	1.490886	-0.759016	-0.172915	1.489047	-0.373362	-0.131660	1.440373	-0.569007	-0.127520	1.012537	-0.436020	-0.140815	1.022219	-0.677228	-0.211340	1.073056	-0.393934	-0.218436	1.070523	-0.712949	-0.309087	1.060635	-0.494016	-0.315382	1.054162	-0.597793	-0.317938	1.053885	-0.543838	-0.169072	0.736103	-0.358828	-0.154776	0.677351	-0.361942	-0.092816	0.689397	-0.376516	-0.098631	0.750670	-0.374231	-0.139030	0.490864	-0.376544	-0.142145	0.461593	-0.487869	-0.254169	0.335847	-0.348448	-0.274914	0.299312	-0.357046	-0.204228	0.314591	-0.351489	-0.218217	0.276341	-0.355483	-0.324508	0.129795	-0.365122	-0.290847	0.125443	-0.447308	-0.378161	0.119842	-0.415455	-0.235718	0.043982	-0.338044	-0.183648	0.048439	-0.403616	-0.160730	0.039446	-0.403207	-0.197332	0.747064	-0.745868	-0.183537	0.687189	-0.745774	-0.119359	0.695371	-0.744565	-0.125305	0.755123	-0.745710	-0.165365	0.490477	-0.738919	-0.161436	0.470002	-0.625283	-0.281453	0.328003	-0.748711	-0.299175	0.292987	-0.740235	-0.242859	0.268643	-0.742678	-0.230768	0.310171	-0.753009	-0.341317	0.128823	-0.734390	-0.311915	0.139625	-0.652093	-0.396811	0.127154	-0.679695	-0.257437	0.049068	-0.761430	-0.203545	0.052539	-0.699108	-0.179310	0.041927	-0.708245	
2	0.0100	-0.261440	1.521254	-0.559990	-0.199086	1.488014	-0.759131	-0.172127	1.485953	-0.373141	-0.131393	1.437364	-0.568988	-0.127937	1.009836	-0.435911	-0.141351	1.019439	-0.677587	-0.212076	1.070060	-0.393812	-0.219653	1.067436	-0.712991	-0.309697	1.057443	-0.493943	-0.315986	1.051056	-0.597619	-0.318543	1.050700	-0.543819	-0.168974	0.733532	-0.358603	-0.154460	0.675007	-0.361731	-0.092559	0.687204	-0.376421	-0.098607	0.748465	-0.374216	-0.137884	0.488059	-0.376859	-0.141471	0.459344	-0.487691	-0.253697	0.333770	-0.348141	-0.274489	0.297283	-0.356658	-0.203876	0.312364	-0.351199	-0.217780	0.274178	-0.355135	-0.324754	0.127940	-0.365134	-0.291037	0.123655	-0.447266	-0.378521	0.117819	-0.415562	-0.235560	0.043047	-0.336450	-0.183186	0.048193	-0.403809	-0.160119	0.039120	-0.404273	-0.196764	0.744309	-0.746017	-0.182697	0.684460	-0.745772	-0.118546	0.692962	-0.743962	-0.124768	0.752684	-0.745049	-0.164326	0.488105	-0.738531	-0.160379	0.467607	-0.624891	-0.280723	0.325873	-0.748603	-0.298601	0.290803	-0.739988	-0.242344	0.266361	-0.742343	-0.230121	0.307758	-0.752667	-0.341563	0.127049	-0.734001	-0.311928	0.137545	-0.651821	-0.396828	0.125634	-0.679094	-0.258446	0.046927	-0.761787	-0.204087	0.050458	-0.698839	-0.179886	0.040499	-0.707943	
3	0.0150	-0.260928	1.518520	-0.560003	-0.198572	1.484972	-0.759256	-0.171362	1.482718	-0.372951	-0.131100	1.434165	-0.568958	-0.128294	1.006879	-0.435831	-0.141800	1.016424	-0.678003	-0.212651	1.066856	-0.393689	-0.220862	1.064082	-0.713067	-0.310254	1.053986	-0.493915	-0.316599	1.047616	-0.597517	-0.319155	1.047205	-0.543862	-0.169034	0.730818	-0.358360	-0.154358	0.672346	-0.361470	-0.092473	0.684763	-0.376160	-0.098725	0.745995	-0.374028	-0.137039	0.485294	-0.376937	-0.140852	0.456849	-0.487450	-0.253423	0.331524	-0.347834	-0.274257	0.294997	-0.356326	-0.203690	0.309983	-0.350893	-0.217524	0.271825	-0.354865	-0.325213	0.126102	-0.365151	-0.291557	0.121732	-0.447247	-0.379098	0.115768	-0.415479	-0.235461	0.042125	-0.335011	-0.182944	0.047981	-0.403896	-0.159723	0.038909	-0.404814	-0.196390	0.741307	-0.746177	-0.182096	0.681523	-0.745888	-0.117934	0.690331	-0.743539	-0.124439	0.750003	-0.744567	-0.163416	0.485425	-0.738180	-0.159621	0.464960	-0.624597	-0.280191	0.323443	-0.748638	-0.298135	0.288314	-0.739847	-0.241874	0.263868	-0.742078	-0.229544	0.305121	-0.752452	-0.341970	0.125070	-0.733563	-0.312189	0.135336	-0.651520	-0.397159	0.123593	-0.678601	-0.259027	0.045232	-0.762562	-0.204270	0.049076	-0.698324	-0.179852	0.039811	-0.707340	
4	0.0200	-0.260423	1.515746	-0.560022	-0.198074	1.481893	-0.759375	-0.170612	1.479448	-0.372773	-0.130802	1.430911	-0.568931	-0.128633	1.003853	-0.435752	-0.142230	1.013343	-0.678426	-0.213220	1.063587	-0.393553	-0.222041	1.060633	-0.713159	-0.310812	1.050470	-0.493910	-0.317208	1.044108	-0.597406	-0.319768	1.043645	-0.543905	-0.169133	0.728057	-0.358108	-0.154304	0.669623	-0.361197	-0.092433	0.682254	-0.375860	-0.098867	0.743467	-0.373796	-0.136239	0.482474	-0.377000	-0.140243	0.454299	-0.487198	-0.253226	0.329262	-0.347559	-0.274120	0.292713	-0.356023	-0.203586	0.307575	-0.350616	-0.217377	0.269441	-0.354603	-0.325764	0.124261	-0.365169	-0.292175	0.119821	-0.447240	-0.379749	0.113735	-0.415409	-0.235450	0.041196	-0.333623	-0.182799	0.047781	-0.403968	-0.159419	0.038703	-0.405288	-0.196077	0.738240	-0.746369	-0.181544	0.678518	-0.746024	-0.117384	0.687621	-0.743181	-0.124169	0.747251	-0.744160	-0.162516	0.482688	-0.737849	-0.158893	0.462262	-0.624317	-0.279703	0.320973	-0.748652	-0.297715	0.285800	-0.739709	-0.241473	0.261320	-0.741804	-0.229026	0.302444	-0.752228	-0.342431	0.123086	-0.733129	-0.312562	0.133124	-0.651187	-0.397580	0.121533	-0.678120	-0.259578	0.043631	-0.763320	-0.204463	0.047784	-0.697849	-0.179847	0.039147	-0.706778	
5	0.0250	-0.259939	1.512842	-0.560052	-0.197622	1.478696	-0.759487	-0.169890	1.476061	-0.372621	-0.130484	1.427504	-0.568904	-0.128920	1.000624	-0.435682	-0.142597	1.010069	-0.678884	-0.213711	1.060133	-0.393399	-0.223178	1.056945	-0.713286	-0.311347	1.046763	-0.493961	-0.317816	1.040364	-0.597321	-0.320383	1.039859	-0.543972	-0.169354	0.725169	-0.357834	-0.154399	0.666709	-0.360888	-0.092518	0.679546	-0.375434	-0.099107	0.740745	-0.373429	-0.135642	0.479617	-0.376935	-0.139690	0.451577	-0.486907	-0.253221	0.326896	-0.347325	-0.274182	0.290316	-0.355775	-0.203661	0.305076	-0.350360	-0.217455	0.266945	-0.354385	-0.326560	0.122461	-0.365148	-0.293046	0.117860	-0.447265	-0.380578	0.111665	-0.415278	-0.235562	0.040271	-0.332363	-0.182849	0.047608	-0.403980	-0.159311	0.038553	-0.405466	-0.195929	0.734978	-0.746593	-0.181167	0.675327	-0.746238	-0.117008	0.684702	-0.743002	-0.124066	0.744291	-0.743941	-0.161697	0.479737	-0.737560	-0.158337	0.459381	-0.624106	-0.279367	0.318322	-0.748699	-0.297415	0.283129	-0.739612	-0.241183	0.258624	-0.741554	-0.228630	0.299622	-0.752054	-0.343047	0.121032	-0.732685	-0.313181	0.130870	-0.650801	-0.398249	0.119251	-0.677716	-0.259951	0.042334	-0.764240	-0.204536	0.046918	-0.697341	-0.179635	0.038841	-0.706154	
6	0.0300	-0.259463	1.509848	-0.560089	-0.197228	1.475416	-0.759579	-0.169212	1.472584	-0.372499	-0.130142	1.423972	-0.568882	-0.129172	0.997203	-0.435621	-0.142915	1.006629	-0.679363	-0.214180	1.056501	-0.393204	-0.224264	1.053012	-0.713451	-0.311881	1.042894	-0.494067	-0.318425	1.036447	-0.597232	-0.321000	1.035900	-0.544044	-0.169664	0.722159	-0.357540	-0.154605	0.663682	-0.360566	-0.092712	0.676677	-0.374935	-0.099402	0.737865	-0.372956	-0.135238	0.476682	-0.376796	-0.139202	0.448733	-0.486589	-0.253390	0.324469	-0.347174	-0.274440	0.287904	-0.355587	-0.203917	0.302515	-0.350188	-0.217789	0.264391	-0.354189	-0.327579	0.120670	-0.365075	-0.294141	0.115872	-0.447339	-0.381591	0.109579	-0.415196	-0.235843	0.039359	-0.331246	-0.183087	0.047460	-0.403963	-0.159403	0.038406	-0.405514	-0.195933	0.731534	-0.746837	-0.180931	0.671960	-0.746496	-0.116805	0.681576	-0.743015	-0.124104	0.741138	-0.743929	-0.160936	0.476634	-0.737321	-0.157870	0.456359	-0.623947	-0.279151	0.315582	-0.748697	-0.297251	0.280415	-0.739507	-0.241058	0.255825	-0.741294	-0.228392	0.296720	-0.751876	-0.343791	0.118979	-0.732260	-0.314047	0.128615	-0.650346	-0.399131	0.116936	-0.677370	-0.260278	0.041243	-0.765107	-0.204640	0.046285	-0.696896	-0.179514	0.038624	-0.705621	
7	0.0350	-0.259007	1.506772	-0.560113	-0.196883	1.472061	-0.759637	-0.168588	1.469000	-0.372400	-0.129770	1.420312	-0.568863	-0.129368	0.993592	-0.435543	-0.143172	1.002988	-0.679867	-0.214620	1.052669	-0.392970	-0.225274	1.048825	-0.713650	-0.312419	1.038851	-0.494226	-0.319028	1.032333	-0.597145	-0.321607	1.031744	-0.544112	-0.170075	0.719027	-0.357221	-0.154936	0.660518	-0.360217	-0.093013	0.673638	-0.374335	-0.099770	0.734827	-0.372357	-0.135035	0.473693	-0.376566	-0.138817	0.445788	-0.486257	-0.253737	0.321995	-0.347091	-0.274899	0.285487	-0.355468	-0.204348	0.299881	-0.350052	-0.218355	0.261813	-0.354017	-0.328831	0.118875	-0.364989	-0.295406	0.113842	-0.447488	-0.382745	0.107378	-0.415177	-0.236247	0.038510	-0.330283	-0.183472	0.047332	-0.403920	-0.159637	0.038283	-0.405425	-0.196095	0.727916	-0.747137	-0.180867	0.668400	-0.746798	-0.116773	0.678235	-0.743254	-0.124290	0.737772	-0.744162	-0.160257	0.473391	-0.737142	-0.157475	0.453181	-0.623875	-0.279079	0.312796	-0.748669	-0.297249	0.277686	-0.739403	-0.241125	0.252949	-0.741028	-0.228330	0.293759	-0.751696	-0.344695	0.116947	-0.731844	-0.315139	0.126389	-0.649855	-0.400203	0.114591	-0.677070	-0.260615	0.040316	-0.765937	-0.204842	0.045890	-0.696557	-0.179497	0.038516	-0.705206	
